<svg width="128" height="128" viewBox="0 0 128 128" fill="none" xmlns="http://www.w3.org/2000/svg" xmlns:xlink="http://www.w3.org/1999/xlink">
    <defs>
        <clipPath id="clip467_1822">
            <rect id="Linear / Astronomy / UFO 3" width="128.000000" height="128.000000" fill-opacity="0"/>
        </clipPath>
    </defs>
    <g clip-path="url(#clip467_1822)">
        <path id="Vector" d="M100.91 64.79C109.46 78.78 111.96 91.45 106.13 97.28C97.44 105.97 73.51 96.14 52.68 75.31C31.85 54.48 22.02 30.55 30.71 21.86C36.54 16.03 49.21 18.53 63.2 27.08" stroke="#060B18" stroke-opacity="1.000000" stroke-width="8.000000"/>
        <path id="Vector" d="M98.96 31.08C108.81 40.93 108.81 56.89 98.96 66.74C98.29 67.41 97.43 67.86 96.5 67.69C93.85 67.22 87.34 64.71 75.31 52.68C63.28 40.65 60.77 34.14 60.3 31.49C60.13 30.56 60.58 29.7 61.25 29.03C71.1 19.18 87.06 19.18 96.91 29.03L98.96 31.08Z" stroke="#060B18" stroke-opacity="1.000000" stroke-width="8.000000"/>
        <circle id="Vector" r="5.333333" transform="matrix(0.707107 0.707107 -0.707107 0.707107 64 64)" fill-opacity="1.000000"/>
        <circle id="Vector" r="5.333333" transform="matrix(0.707107 0.707107 -0.707107 0.707107 48.915 41.3726)" fill-opacity="1.000000"/>
        <circle id="Vector" r="5.333333" transform="matrix(0.707107 0.707107 -0.707107 0.707107 86.6274 79.0849)" fill-opacity="1.000000"/>
        <path id="Vector" d="M41.37 86.62L19.39 108.6" stroke="#060B18" stroke-opacity="1.000000" stroke-width="8.000000" stroke-linecap="round"/>
        <path id="Vector" d="M53.33 117.33L67.77 105.48" stroke="#060B18" stroke-opacity="1.000000" stroke-width="8.000000" stroke-linecap="round"/>
        <path id="Vector" d="M22.51 60.22L10.66 74.66" stroke="#060B18" stroke-opacity="1.000000" stroke-width="8.000000" stroke-linecap="round"/>
    </g>
</svg>
