<svg width="32" height="32" viewBox="0 0 352 352" fill="none" xmlns="http://www.w3.org/2000/svg" xmlns:xlink="http://www.w3.org/1999/xlink">
    <defs>
        <filter id="filter_42_258_dd" x="-0.000002" y="0.000000" width="352.000000" height="352.000000" filterUnits="userSpaceOnUse" color-interpolation-filters="sRGB">
            <feFlood flood-opacity="0" result="BackgroundImageFix"/>
            <feGaussianBlur in="BackgroundImage" stdDeviation="8"/>
            <feComposite in2="SourceAlvpha" operator="in" result="effect_backgroundBlur_1"/>
            <feBlend mode="normal" in="SourceGraphic" in2="effect_backgroundBlur_1" result="shape"/>
        </filter>
        <clipPath id="clip42_256">
            <rect id="Bold / Video, Audio, Sound / Clapperboard Open" width="256.000000" height="256.000000" transform="translate(48.000000 48.000000)" fill="white" fill-opacity="0"/>
        </clipPath>
    </defs>
    <g filter="url(#filter_42_258_dd)">
        <rect id="Frame 1" rx="48.000000" width="352.000000" height="352.000000" fill="#0594FA" fill-opacity="0.700000"/>
        <g clip-path="url(#clip42_256)">
            <path id="Vector" d="M206.3 134.34L242.65 124.6C245.04 123.96 246.24 123.64 247.18 123.18C251.05 121.27 253.39 117.22 253.11 112.91C253.04 111.86 252.72 110.67 252.08 108.27C250.15 101.09 249.19 97.5 247.8 94.68C242.07 83.07 229.92 76.05 217 76.9C215.69 76.98 214.3 77.2 212.6 77.57C212.8 78.44 212.86 79.37 212.74 80.32L206.3 134.34ZM145.6 95.39L196.46 81.77L190.05 135.46C189.92 136.56 190.02 137.63 190.31 138.63L139.33 152.29L145.77 98.26C145.89 97.27 145.82 96.31 145.6 95.39ZM123.08 153.41C122.95 154.5 123.05 155.57 123.34 156.57L90.68 165.33C85.51 146.07 82.93 136.44 85.15 128.15C86.61 122.73 89.46 117.78 93.44 113.81C99.5 107.75 109.13 105.17 128.39 100.01L129.49 99.71L123.08 153.41ZM218.66 165.33L90.66 165.33L90.66 218.66C90.66 248.83 90.66 263.92 100.03 273.29C109.41 282.66 124.49 282.66 154.66 282.66L197.33 282.66C227.5 282.66 242.58 282.66 251.96 273.29C261.33 263.92 261.33 248.83 261.33 218.66L261.33 208C261.33 187.88 261.33 177.83 255.08 171.58C248.83 165.33 238.78 165.33 218.66 165.33Z" fill="#FFFFFF" fill-opacity="1.000000" fill-rule="evenodd"/>
        </g>
    </g>
</svg>
