<svg width="20.000000" height="20.000000" viewBox="0 0 20 20" fill="none" xmlns="http://www.w3.org/2000/svg" xmlns:xlink="http://www.w3.org/1999/xlink">
	<path id="Vector" d="M10 20C15.52 20 20 15.52 20 10C20 4.47 15.52 0 10 0C4.47 0 0 4.47 0 10C0 15.52 4.47 20 10 20ZM7.96 6.46C8.26 6.17 8.73 6.17 9.03 6.46L12.03 9.46C12.32 9.76 12.32 10.23 12.03 10.53L9.03 13.53C8.73 13.82 8.26 13.82 7.96 13.53C7.67 13.23 7.67 12.76 7.96 12.46L10.43 10L7.96 7.53C7.67 7.23 7.67 6.76 7.96 6.46Z" fill="#FFFFFF" fill-opacity="1.000000" fill-rule="evenodd"/>
</svg>
